<svg xmlns="http://www.w3.org/2000/svg" viewBox="0 0 24 24" role="img" aria-label="Train icon">
  <!-- Brown background with slightly rounded corners -->
  <rect width="24" height="24" rx="2.8" fill="#62361b"/>

  <!-- Train in white, centered -->
  <g fill="#FFFFFF" transform="translate(1.6,-1.4)">
    <path d="M4.8,17.2l0,0.1l0.1,0.1L5,17.5l0.1,0.1l0.1,0.1l0.1,0.1l0.1,0.1L5.7,18L6,18l0.3,0l0.1,0l0.1,0l0.1,0v-2H7
      h0.7h2.8h0.1h2.8h0.8h0.4v2l0.1,0l0.1,0h0H15l0.1,0l0.3-0.1l0.3-0.1l0.1-0.1l0.1-0.1l0.1-0.1l0.1-0.1l0.1-0.1l0.1-0.1l0-0.1l0-0.1
      l0.6-5.7l-0.5-5l0-0.2L16.4,6l-0.1-0.2l-0.1-0.2L16,5.4l-0.2-0.1l-0.2-0.1L15.5,5l-0.3-0.1l-0.3-0.1l0,0l-0.3-0.1l-0.3-0.1l0,0
      l-0.6-0.1l-0.2,0L13,4.4l-0.6-0.1l-0.6,0l-1.1,0l-0.1,0l-1.2,0l-0.6,0L8.1,4.4l-0.3,0l-0.3,0L7.2,4.5L7,4.6l-0.2,0L6.6,4.7L6.3,4.8
      l-0.1,0L6,4.9L5.7,5L5.4,5.1L5.2,5.3L5.1,5.4L5,5.6L4.8,5.8L4.8,6L4.7,6.2l0,0.2l-0.5,5l0.6,5.7L4.8,17.2z M14,13.9l0,0.1l-0.1,0.1
      l-0.1,0.1l-0.1,0.1l-0.1,0.1l-0.1,0l-0.1,0l-0.1,0l-0.1,0l-0.1-0.1L13,14.2l-0.1-0.1l-0.1-0.1l0-0.1l0-0.1l0-0.1l0-0.1l0.1-0.1
      l0.1-0.1l0.1-0.1l0.1-0.1l0.1,0l0.1,0l0.1,0l0.1,0l0.1,0.1l0.1,0.1l0.1,0.1l0.1,0.1l0,0.1l0,0.1L14,13.9z M15.5,13.9l0,0.1
      l-0.1,0.1l-0.1,0.1l-0.1,0.1l-0.1,0.1l-0.1,0l-0.1,0h0l-0.1,0l-0.1,0l-0.1-0.1l-0.1-0.1l-0.1-0.1l-0.1-0.1l0-0.1l0-0.1l0-0.1l0-0.1
      l0.1-0.1l0.1-0.1l0.1-0.1l0.1-0.1l0.1,0l0.1,0h0l0.1,0l0.1,0l0.1,0.1l0.1,0.1l0.1,0.1l0.1,0.1l0,0.1l0,0.1L15.5,13.9z M12.4,6.6
      L12.4,6.6l0-0.2l0-0.1l0.1-0.1l0.1-0.1l0.1,0l0.1,0l0.1,0h0.6h0.8h0.7h0.2l0.1,0l0.1,0l0.1,0l0.1,0.1l0.1,0.1l0,0.1l0,0.1l0.5,4.6
      l0,0.2l0,0.1l-0.1,0.1l-0.1,0.1l-0.1,0l-0.1,0l-0.1,0h-0.7h-0.7h-0.8h-0.6l-0.1,0l-0.1-0.1l-0.1-0.1l-0.1-0.1l-0.1-0.1l0-0.1V6.6z
       M9.3,5.7h1.3H12v8.9h-1.3H9.3V5.7z M6.9,13.9l0,0.1l-0.1,0.1l-0.1,0.1l-0.1,0.1l-0.1,0.1l-0.1,0l-0.1,0h0l-0.1,0l-0.1,0L6,14.3
      l-0.1-0.1l-0.1-0.1L5.8,14l0-0.1l0-0.1l0-0.1l0-0.1l0.1-0.1l0.1-0.1L6,13.3l0.1-0.1l0.1,0l0.1,0h0l0.1,0l0.1,0l0.1,0.1l0.1,0.1
      l0.1,0.1l0.1,0.1l0,0.1l0,0.1L6.9,13.9z M8.4,13.9l0,0.1l-0.1,0.1l-0.1,0.1l-0.1,0.1L8,14.4l-0.1,0l-0.1,0l-0.1,0l-0.1,0l-0.1-0.1
      l-0.1-0.1l-0.1-0.1L7.2,14l0-0.1l0-0.1l0-0.1l0-0.1l0.1-0.1l0.1-0.1l0.1-0.1l0.1-0.1l0.1,0l0.1,0l0.1,0l0.1,0l0.1,0.1l0.1,0.1
      l0.1,0.1l0.1,0.1l0,0.1l0,0.1L8.4,13.9z M5.3,11.1l0.5-4.5l0-0.2l0.1-0.1l0.1-0.1L6,6.2l0.1,0l0,0l0,0h0.2H7h0.7h0.6l0.1,0l0.1,0
      l0.1,0l0.1,0l0.1,0.1l0,0.1l0,0.1l0,0.1v4.7l0,0.1l0,0.1l0,0.1l0,0.1l-0.1,0l-0.1,0l-0.2,0.1H7.8H7H6.3H5.8l-0.1,0l-0.1,0l-0.1,0
      l-0.1-0.1l-0.1-0.1l0-0.1l0-0.1L5.3,11.1z"/>
    <rect x="8.1" y="17.5" width="5.1" height="0.7"/>
    <path d="M16.2,21.9L15.4,21H17l-0.8-0.8h-1.5l-0.4-0.5h-0.8l0.3,0.5h-3.2H7.4l0.3-0.5l-0.8,0l-0.4,0.5H4.9l-0.8,0.9
      h1.7l-0.7,0.8H3.4l-1.1,1.2l1.7,0l-0.4,0.5h1.8l0.3-0.5l4.9,0l4.9,0l0.3,0.6h1.8l-0.5-0.6h1.6l-1.1-1.2H16.2z M10.6,21.9H6.4
      L6.9,21l3.7,0l3.7,0l0.5,0.8H10.6z"/>
    <rect x="7" y="16.2" width="0.7" height="3.3"/>
    <rect x="13.5" y="16.2" width="0.7" height="3.3"/>
  </g>
</svg>
